<svg id="Layer_1" data-name="Layer 1" xmlns="http://www.w3.org/2000/svg" viewBox="0 0 24 24" stroke-width="1.5" width="24" height="24" color="#000000"><defs><style>.cls-637a534e15c575900940070d-1{fill:none;stroke:currentColor;stroke-miterlimit:10;}</style></defs><circle class="cls-637a534e15c575900940070d-1" cx="2.45" cy="21.52" r="0.95"></circle><circle class="cls-637a534e15c575900940070d-1" cx="21.55" cy="21.52" r="0.95"></circle><line class="cls-637a534e15c575900940070d-1" x1="2.45" y1="20.57" x2="21.55" y2="20.57"></line><path class="cls-637a534e15c575900940070d-1" d="M16.38,20.57H7.7a3.35,3.35,0,0,1-3.34-3.34h0A3.34,3.34,0,0,1,7.7,13.89h.37a19.88,19.88,0,0,1,9.22,2.26h0a2.31,2.31,0,0,1,1.39,2.12h0A2.3,2.3,0,0,1,16.38,20.57Z"></path><line class="cls-637a534e15c575900940070d-1" x1="4.36" y1="6.25" x2="6.27" y2="13.89"></line><path class="cls-637a534e15c575900940070d-1" d="M1.5,5.3h0a3.25,3.25,0,0,0,2.3,1H8.18"></path><line class="cls-637a534e15c575900940070d-1" x1="18.68" y1="3.39" x2="18.68" y2="18.66"></line><path class="cls-637a534e15c575900940070d-1" d="M22.5.52h0a8.27,8.27,0,0,1-5.36,7.74l-2.28.85"></path><line class="cls-637a534e15c575900940070d-1" x1="20.59" y1="1.48" x2="15.82" y2="5.3"></line></svg>